<!-- icon666.com - MILLIONS vector ICONS FREE --><svg id="Layer" enable-background="new 0 0 64 64" viewBox="0 0 64 64" xmlns="http://www.w3.org/2000/svg"><path d="m40 14v5.88c-2.41-1.2-5.12-1.88-8-1.88s-5.59.68-8 1.88v-5.88c0-2.21 1.79-4 4-4h8c2.21 0 4 1.79 4 4z" fill="#4dd0e1" style="fill: rgb(39, 114, 124);"></path><path d="m32 25c6.08 0 11 4.92 11 11s-4.92 11-11 11-11-4.92-11-11 4.92-11 11-11zm2 11c0-1.1-.9-2-2-2s-2 .9-2 2 .9 2 2 2 2-.9 2-2z" fill="#ff7043" style="fill: rgb(179, 127, 111);"></path><path d="m40 19.88c5.93 2.94 10 9.06 10 16.12 0 9.94-8.06 18-18 18s-18-8.06-18-18c0-7.06 4.07-13.18 10-16.12 2.41-1.2 5.12-1.88 8-1.88s5.59.68 8 1.88zm3 16.12c0-6.08-4.92-11-11-11s-11 4.92-11 11 4.92 11 11 11 11-4.92 11-11z" fill="#ff8a65" style="fill: rgb(209, 49, 0);"></path><g fill="#012e52"><path d="m32 32c-2.206 0-4 1.794-4 4s1.794 4 4 4 4-1.794 4-4-1.794-4-4-4zm-2 4 1.999-.006c0 .001.001.005.001.006z" fill="#012e52"></path><path d="m32 23c-7.168 0-13 5.832-13 13s5.832 13 13 13 13-5.832 13-13-5.832-13-13-13zm0 22c-4.962 0-9-4.037-9-9s4.038-9 9-9 9 4.037 9 9-4.038 9-9 9z" fill="#012e52"></path><path d="m42 18.688v-4.688c0-3.309-2.691-6-6-6h-8c-3.309 0-6 2.691-6 6v4.688c-6.198 3.565-10 10.085-10 17.312 0 11.028 8.972 20 20 20s20-8.972 20-20c0-7.226-3.803-13.746-10-17.312zm-14-6.688h8c1.103 0 2 .897 2 2v2.926c-1.93-.611-3.937-.926-6-.926s-4.07.315-6 .926v-2.926c0-1.103.897-2 2-2zm4 40c-8.822 0-16-7.178-16-16 0-6.119 3.406-11.609 8.892-14.33 2.225-1.108 4.617-1.67 7.108-1.67s4.883.562 7.108 1.67c.001.001.002.001.003.002 5.483 2.719 8.889 8.209 8.889 14.328 0 8.822-7.178 16-16 16z" fill="#012e52"></path></g></svg>